:SAMPLES-PER-SECOND 30
:FULLY-SPECIFIED
:DEGREES
92
root  -15.6948 38.7823 24.3637 -175.048 -47.6701 170.181
RightUpLeg  -15.9162 -13.4082 7.52792
RightLeg  18.3402 -31.6173 -2.87403
RightFoot  -15.1664 -0.526725 -12.6759
RightToes  1.74622e-010 0 -3.6325e-017
Spine  0.0487515 -1.90067 5.35142
Spine1  10.93 -1.67046 0.112829
HEad  0.587296 -26.6112 5.58284
LeftShoulder1  6.70973 -9.81388 -43.8318
LeftArm  -20.6418 23.9158 -18.1344
LeftForeArm  23.6415 -32.9832 -5.94345
LeftHand  -0.244104 0.0205437 5.32207
RightShoulder  6.19876 9.58518 41.1508
RightArm  -7.29446 -13.8605 28.2062
RightForeArm  5.37577 11.8142 6.40517
RightHand  -1.24903 3.22318 -16.965
LeftUpLeg  2.69108 27.3366 6.0403
LeftLeg  49.5523 -1.6538 -1.66694
LeftFoot  10.7309 3.55337 -18.4373
LeftToes  -2.63786e-011 -1.12672e-010 -2.07835e-011
93
root  -16.588 38.7444 23.792 -176.429 -44.0776 171.881
RightUpLeg  -14.6832 -11.8225 8.13152
RightLeg  20.259 -30.0139 -3.31225
RightFoot  -16.7539 -0.677349 -11.8636
RightToes  1.74622e-010 0 -3.6325e-017
Spine  0.915785 -2.17071 6.0408
Spine1  10.8464 -1.8859 1.06708
HEad  0.63036 -25.3486 6.5406
LeftShoulder1  6.93343 -10.0891 -44.4045
LeftArm  -16.6348 25.6146 -19.5586
LeftForeArm  22.786 -29.3791 -5.12186
LeftHand  -0.244104 0.0205437 5.32207
RightShoulder  6.34964 9.73181 41.7281
RightArm  -4.5307 -11.7159 29.1446
RightForeArm  2.27097 14.8197 6.21641
RightHand  -1.35536 3.55564 -17.712
LeftUpLeg  -4.23281 21.0851 5.10753
LeftLeg  57.5871 -1.57401 -2.06403
LeftFoot  12.8726 3.01395 -14.2812
LeftToes  -2.63786e-011 -1.12672e-010 -2.07835e-011
94
root  -17.516 38.9745 23.0852 -176.969 -38.7069 172.244
RightUpLeg  -12.045 -9.77308 7.81336
RightLeg  19.5196 -27.1617 -2.403
RightFoot  -16.9251 -0.700424 -11.9756
RightToes  1.74622e-010 0 -3.6325e-017
Spine  1.16757 -1.51455 6.4849
Spine1  11.0897 -0.928293 0.369661
HEad  0.943904 -24.1597 7.38105
LeftShoulder1  7.2031 -10.4162 -45.082
LeftArm  -12.2365 26.067 -21.0499
LeftForeArm  22.9446 -25.1876 -4.18893
LeftHand  -0.244104 0.0205437 5.32207
RightShoulder  6.46068 9.79963 42.2784
RightArm  -0.0661115 -9.82083 30.3203
RightForeArm  -1.07528 18.3747 5.67602
RightHand  -1.44485 3.84129 -18.292
LeftUpLeg  -8.56202 16.8475 4.32585
LeftLeg  60.9151 0.8853 2.28149
LeftFoot  9.67931 1.69546 -9.38105
LeftToes  -2.63786e-011 -1.12672e-010 -2.07835e-011
95
root  -18.3866 39.2786 22.2916 -177.062 -31.6235 171.923
RightUpLeg  -8.99181 -7.75986 7.12359
RightLeg  17.7845 -22.3201 -1.23949
RightFoot  -16.5455 -0.66569 -12.1403
RightToes  1.74622e-010 0 -3.6325e-017
Spine  1.31487 -0.22935 6.63138
Spine1  11.0304 0.813709 -1.14984
HEad  1.85773 -22.4733 7.47068
LeftShoulder1  7.30288 -10.5113 -45.4086
LeftArm  -9.45297 26.4961 -23.3009
LeftForeArm  23.3934 -21.3707 -3.60428
LeftHand  -0.244104 0.0205437 5.32207
RightShoulder  6.53911 9.91846 42.4221
RightArm  4.01502 -8.08774 31.8414
RightForeArm  -1.12935 21.5155 5.08708
RightHand  -1.42383 3.78989 -18.1262
LeftUpLeg  -11.4913 14.5707 3.62245
LeftLeg  60.9111 4.3082 8.86982
LeftFoot  5.37236 0.504113 -3.63732
LeftToes  -2.63786e-011 -1.12672e-010 -2.07835e-011
96
root  -19.1747 39.5122 21.4942 -176.989 -24.5259 171.5
RightUpLeg  -6.3279 -6.16094 6.1326
RightLeg  16.3741 -16.9627 -0.287998
RightFoot  -16.5604 -0.663017 -12.0472
RightToes  1.74622e-010 0 -3.6325e-017
Spine  1.75339 0.790575 6.51568
Spine1  10.3158 2.232 -2.51517
HEad  2.97389 -20.0454 6.99387
LeftShoulder1  7.3267 -10.4754 -45.6824
LeftArm  -9.69272 27.525 -25.8251
LeftForeArm  23.7948 -18.7163 -3.69824
LeftHand  -0.244104 0.0205437 5.32207
RightShoulder  6.64989 10.1357 42.4553
RightArm  6.76933 -6.39708 33.2854
RightForeArm  1.6053 24.1792 5.05019
RightHand  -1.37622 3.65576 -17.7892
LeftUpLeg  -14.3374 12.1523 2.90061
LeftLeg  59.0018 6.61368 12.2615
LeftFoot  1.78808 -0.200763 1.60768
LeftToes  -2.63786e-011 -1.12672e-010 -2.07835e-011
97
root  -19.917 39.6962 20.6891 -176.892 -18.3615 171.188
RightUpLeg  -4.14321 -5.29541 4.95961
RightLeg  15.378 -11.8505 0.467529
RightFoot  -16.8097 -0.692214 -12.0698
RightToes  1.74622e-010 0 -3.6325e-017
Spine  2.28197 1.35389 6.53272
Spine1  9.45235 3.12122 -3.83547
HEad  3.48819 -17.3213 6.36754
LeftShoulder1  7.46437 -10.5823 -46.2034
LeftArm  -10.7076 28.4706 -27.9546
LeftForeArm  23.3191 -17.1524 -3.85569
LeftHand  -0.244104 0.0205437 5.32207
RightShoulder  6.78444 10.3124 42.7805
RightArm  8.69786 -4.83457 34.1979
RightForeArm  3.67489 26.8132 5.57741
RightHand  -1.39416 3.674 -17.9781
LeftUpLeg  -17.0945 9.08193 2.35797
LeftLeg  55.2661 6.61859 10.6811
LeftFoot  -1.35361 -0.275012 3.12491
LeftToes  -2.63786e-011 -1.12672e-010 -2.07835e-011
98
root  -20.6293 39.8473 19.8396 -177.027 -12.8558 171.029
RightUpLeg  -2.10775 -4.97062 3.75832
RightLeg  14.7631 -6.82488 0.913475
RightFoot  -16.9854 -0.715911 -12.1482
RightToes  1.74622e-010 0 -3.6325e-017
Spine  2.79827 1.79354 6.98574
Spine1  9.00433 3.931 -5.43093
HEad  3.10215 -14.7732 5.65562
LeftShoulder1  7.69792 -10.8539 -46.7656
LeftArm  -11.2204 28.6394 -29.5738
LeftForeArm  23.1017 -16.2546 -3.97336
LeftHand  -0.244104 0.0205437 5.32207
RightShoulder  6.88172 10.384 43.1946
RightArm  10.3844 -3.56811 34.7482
RightForeArm  3.68358 29.3482 6.17868
RightHand  -1.40808 3.59085 -18.3151
LeftUpLeg  -19.261 6.65386 2.14862
LeftLeg  49.6532 4.49236 6.12594
LeftFoot  -3.49779 -0.0377179 0.867505
LeftToes  -2.63786e-011 -1.12672e-010 -2.07835e-011
99
root  -21.2947 39.9582 18.9309 -177.388 -8.1089 170.836
RightUpLeg  0.127739 -5.00954 2.32619
RightLeg  14.1559 -2.10461 1.22518
RightFoot  -17.2317 -0.737029 -12.0187
RightToes  1.74622e-010 0 -3.6325e-017
Spine  3.33713 2.10362 7.26292
Spine1  8.83456 4.53478 -6.84903
HEad  2.23856 -12.5399 4.79191
LeftShoulder1  7.90883 -11.13 -47.1513
LeftArm  -11.3013 28.1686 -30.8102
LeftForeArm  23.6424 -15.9606 -4.03484
LeftHand  -0.244104 0.0205437 5.32207
RightShoulder  6.93073 10.4547 43.287
RightArm  11.6328 -2.70867 35.2765
RightForeArm  3.46506 31.2744 6.67095
RightHand  -1.33184 3.19487 -18.1137
LeftUpLeg  -20.8819 5.23055 1.87943
LeftLeg  42.5624 1.70006 2.0548
LeftFoot  -3.97411 0.13695 -1.72742
LeftToes  -2.63786e-011 -1.12672e-010 -2.07835e-011
